# xmcd
#
# Track frame offsets:
#	150
#	15411
#	28018
#	42464
#	59788
#	75498
#	93670
#	113598
#	136169
#	150929
#	165111
#	182553
#	201181
#
# Disc length: 2799 seconds
#
# Revision: 0
# Processed by: cddbd v1.5.2PL0 Copyright (c) Steve Scherf et al.
# Submitted via: audiograbber 1.83.01
#
DISCID=970aed0d
DTITLE=Son Volt - Okemah And The Melody Of Riot
DYEAR=2005
DGENRE=Country
TTITLE0=Bandages and Scars
TTITLE1=Afterglow 61
TTITLE2=Jet Pilot
TTITLE3=Atmosphere
TTITLE4=Ipecac
TTITLE5=Who
TTITLE6=Endless War
TTITLE7=Medication
TTITLE8=6 String Belief
TTITLE9=Gramophone
TTITLE10=Chaos Streams
TTITLE11=World Waits For You 
TTITLE12=World Waits For You (Reprise)
EXTD=
EXTT0=
EXTT1=
EXTT2=
EXTT3=
EXTT4=
EXTT5=
EXTT6=
EXTT7=
EXTT8=
EXTT9=
EXTT10=
EXTT11=
EXTT12=
PLAYORDER=
